<?xml version="1.0" encoding="utf-8"?>
<!-- Generator: Adobe Illustrator 16.0.3, SVG Export Plug-In . SVG Version: 6.00 Build 0)  -->
<!DOCTYPE svg PUBLIC "-//W3C//DTD SVG 1.1//EN" "http://www.w3.org/Graphics/SVG/1.1/DTD/svg11.dtd">
<svg version="1.1" id="Warstwa_1" xmlns="http://www.w3.org/2000/svg" xmlns:xlink="http://www.w3.org/1999/xlink" x="0px" y="0px"
	 width="236px" height="88.5px" viewBox="0 0 236 88.5" enable-background="new 0 0 236 88.5" xml:space="preserve">
<g>
	<g>
		<g>
			<path fill="#AF1F24" d="M103.545,81.26c-1.15-0.011-2.093-0.46-2.828-1.349c-0.734-0.888-1.102-1.894-1.102-3.013
				c0-1.059,0.175-1.982,0.524-2.773c0.349-0.791,0.922-1.471,1.718-2.035c0.796-0.565,1.457-0.977,1.98-1.233
				c0.524-0.256,1.331-0.595,2.42-1.017c0.309-0.124,0.539-0.217,0.693-0.277v-1.527c0-0.82-0.095-1.422-0.284-1.803
				c-0.191-0.379-0.578-0.569-1.164-0.569c-0.956,0-1.444,0.668-1.465,2.004l-0.062,1.141l-4.13-0.154
				c0-0.063,0.002-0.175,0.008-0.339c0.005-0.165,0.007-0.272,0.007-0.324c0.134-1.91,0.702-3.313,1.703-4.207
				c1.002-0.895,2.433-1.342,4.293-1.342c1.797,0,3.131,0.489,3.999,1.465s1.302,2.358,1.302,4.146v8.338
				c0,1.397,0.114,2.924,0.34,4.577h-3.899c-0.236-1.192-0.385-2.085-0.447-2.682c-0.257,0.843-0.686,1.549-1.287,2.119
				S104.49,81.26,103.545,81.26z M105.194,77.915c0.328,0,0.654-0.123,0.979-0.369c0.323-0.247,0.583-0.498,0.778-0.756v-5.024
				c-2.137,1.182-3.206,2.523-3.206,4.023c0,0.657,0.126,1.176,0.377,1.556C104.375,77.726,104.731,77.915,105.194,77.915z"/>
			<path fill="#AF1F24" d="M119.79,81.26c-2.066,0-3.551-0.58-4.454-1.742c-0.905-1.16-1.357-2.84-1.357-5.04v-5.285
				c0-2.198,0.452-3.874,1.357-5.024c0.903-1.15,2.388-1.727,4.454-1.727c1.941,0,3.352,0.458,4.23,1.372
				c0.877,0.914,1.317,2.333,1.317,4.254v1.479h-4.022V67.99c0-0.925-0.11-1.57-0.332-1.934c-0.221-0.365-0.604-0.548-1.147-0.548
				c-0.607,0-1.016,0.216-1.226,0.647s-0.316,1.232-0.316,2.403v6.659c0,1.161,0.115,1.944,0.348,2.35
				c0.23,0.406,0.628,0.609,1.194,0.609c0.574,0,0.965-0.198,1.171-0.594c0.206-0.395,0.309-0.994,0.309-1.795v-1.958h4.022v1.726
				c0,1.892-0.45,3.314-1.349,4.271C123.09,80.782,121.69,81.26,119.79,81.26z"/>
			<path fill="#AF1F24" d="M131.688,81.26c-1.15-0.011-2.094-0.46-2.828-1.349c-0.735-0.888-1.103-1.894-1.103-3.013
				c0-1.059,0.175-1.982,0.524-2.773s0.922-1.471,1.719-2.035c0.796-0.565,1.456-0.977,1.98-1.233
				c0.523-0.256,1.33-0.595,2.42-1.017c0.308-0.124,0.539-0.217,0.693-0.277v-1.527c0-0.82-0.096-1.422-0.286-1.803
				c-0.189-0.379-0.578-0.569-1.163-0.569c-0.955,0-1.443,0.668-1.464,2.004l-0.063,1.141l-4.129-0.154
				c0-0.063,0.002-0.175,0.007-0.339c0.005-0.165,0.008-0.272,0.008-0.324c0.134-1.91,0.701-3.313,1.703-4.207
				c1.002-0.895,2.433-1.342,4.292-1.342c1.798,0,3.131,0.489,3.999,1.465c0.869,0.976,1.303,2.358,1.303,4.146v8.338
				c0,1.397,0.113,2.924,0.339,4.577h-3.898c-0.237-1.192-0.387-2.085-0.448-2.682c-0.256,0.843-0.686,1.549-1.286,2.119
				S132.633,81.26,131.688,81.26z M133.336,77.915c0.329,0,0.655-0.123,0.979-0.369c0.324-0.247,0.584-0.498,0.779-0.756v-5.024
				c-2.138,1.182-3.206,2.523-3.206,4.023c0,0.657,0.126,1.176,0.378,1.556C132.517,77.726,132.874,77.915,133.336,77.915z"/>
			<path fill="#AF1F24" d="M146.605,81.26c-1.49,0-2.604-0.529-3.345-1.587c-0.739-1.059-1.109-2.738-1.109-5.04v-5.302
				c0-0.976,0.075-1.859,0.224-2.65c0.149-0.791,0.386-1.516,0.709-2.174c0.324-0.657,0.778-1.166,1.364-1.525
				s1.284-0.54,2.097-0.54c1.149,0,2.229,0.468,3.236,1.403v-8.431h4.314v25.553h-4.314v-1.248
				C148.805,80.736,147.746,81.249,146.605,81.26z M148.115,78.178c0.525,0,1.08-0.164,1.666-0.493V66.033
				c-0.586-0.37-1.146-0.555-1.68-0.555c-0.576,0-0.989,0.261-1.241,0.786c-0.253,0.523-0.378,1.191-0.378,2.003v6.688
				c0,0.658,0.036,1.202,0.107,1.634c0.072,0.433,0.234,0.804,0.486,1.117C147.327,78.021,147.675,78.178,148.115,78.178z"/>
			<path fill="#AF1F24" d="M162.927,81.26c-2.086,0-3.587-0.575-4.501-1.727c-0.914-1.15-1.37-2.851-1.37-5.101V69.27
				c0-2.25,0.462-3.951,1.387-5.102s2.413-1.727,4.469-1.727c1.089,0,2.007,0.16,2.751,0.478c0.745,0.319,1.326,0.803,1.742,1.449
				c0.415,0.647,0.711,1.396,0.886,2.242c0.175,0.848,0.263,1.868,0.263,3.06v2.389h-7.214v2.744c0,0.38,0.003,0.675,0.008,0.885
				c0.006,0.212,0.023,0.466,0.055,0.764c0.03,0.299,0.079,0.529,0.146,0.693c0.065,0.165,0.156,0.332,0.27,0.501
				c0.113,0.17,0.262,0.291,0.446,0.362c0.185,0.072,0.401,0.108,0.647,0.108c0.575,0,0.976-0.202,1.202-0.608
				s0.339-0.994,0.339-1.766v-1.048h4.085v0.725c0,1.891-0.471,3.337-1.411,4.338C166.186,80.759,164.786,81.26,162.927,81.26z
				 M161.339,69.901h3.113V68.16c0-0.925-0.115-1.587-0.347-1.988c-0.23-0.401-0.64-0.602-1.225-0.602
				c-0.596,0-1.002,0.227-1.219,0.679c-0.215,0.451-0.323,1.273-0.323,2.466V69.901z"/>
			<path fill="#AF1F24" d="M171.495,80.967V62.72h4.1v1.603c1.223-1.284,2.667-1.927,4.331-1.927c1.521,0,2.533,0.746,3.036,2.234
				c1.284-1.488,2.82-2.234,4.608-2.234c1.017,0,1.835,0.371,2.451,1.109c0.615,0.74,0.925,1.813,0.925,3.222v14.24h-4.101v-13.87
				c0-0.668-0.11-1.141-0.331-1.419c-0.221-0.276-0.547-0.41-0.979-0.4c-0.75,0.021-1.506,0.376-2.266,1.063
				c0,0.041,0.002,0.103,0.008,0.186c0.005,0.081,0.008,0.148,0.008,0.2v14.24h-4.085v-13.87c0-0.668-0.11-1.141-0.331-1.419
				c-0.221-0.276-0.553-0.41-0.994-0.4c-0.719,0.021-1.479,0.381-2.281,1.079v14.61H171.495z"/>
			<path fill="#AF1F24" d="M194.197,85.853v-3.113c1.314,0,2.181-0.126,2.597-0.377c0.417-0.253,0.552-0.783,0.409-1.596
				c-0.135-0.719-0.345-1.613-0.633-2.682c-0.287-1.212-0.945-3.802-1.973-7.768s-1.675-6.499-1.941-7.598h4.223l2.266,11.99
				l1.987-11.99h4.209l-4.331,19.203c-0.319,1.438-1.01,2.455-2.074,3.051c-1.063,0.596-2.467,0.889-4.215,0.879H194.197z"/>
		</g>
		<path fill="#AF1F24" d="M85.086,71.681l9.657-9.879h2.967l-9.657,9.879l9.657,9.879h-2.967L85.086,71.681z"/>
		<path fill="#AF1F24" d="M206.171,80.55l9.374-18.748h2.493v1.011l-9.374,18.747h-2.493V80.55z"/>
		<path fill="#AF1F24" d="M230.236,71.681l-9.657-9.879h2.966l9.659,9.879l-9.659,9.879h-2.966L230.236,71.681z"/>
	</g>
	<g>
		<path fill="#AF1F24" d="M93.315,5.25H7.681c-2.474,0-4.477,2.004-4.477,4.477v36.646c0,2.473,2.003,4.475,4.477,4.475h85.635
			c2.474,0,4.479-2.002,4.479-4.475V9.727C97.794,7.253,95.789,5.25,93.315,5.25 M18.093,44.065H15.05V20.234h3.043V44.065z
			 M18.093,17.297H15.05v-5.489h3.043V17.297z M44.733,44.065H41.69V30.957c0-1.914-0.346-3.528-1.031-4.84
			c-0.688-1.311-1.636-2.266-2.842-2.862c-1.206-0.597-2.404-0.893-3.596-0.893c-1.263,0-2.508,0.329-3.734,0.988
			c-1.226,0.661-2.145,1.629-2.756,2.905c-0.609,1.292-0.916,2.859-0.916,4.702v13.108h-3.041V20.233h3.041v3.043h0.086
			c1.659-2.439,4.178-3.66,7.554-3.66c1.604,0,3.053,0.292,4.352,0.874c1.298,0.581,2.438,1.411,3.414,2.489
			c0.64,0.723,1.165,1.638,1.576,2.745c0.623,1.617,0.937,3.362,0.937,5.233V44.065z M55.095,44.065h-3.041V22.979h-3.703v-2.746
			h3.703c0.055-1.702,0.233-3.049,0.53-4.042c0.3-0.993,0.813-1.863,1.543-2.607c0.73-0.745,1.662-1.309,2.798-1.691
			s2.561-0.595,4.277-0.639v2.831c-1.645,0.028-2.908,0.284-3.788,0.766c-0.881,0.484-1.511,1.192-1.894,2.127
			c-0.284,0.668-0.426,1.753-0.426,3.256h6.107v2.746h-6.107V44.065z M84.194,38.299c-1.114,2.001-2.653,3.557-4.617,4.672
			c-1.966,1.113-4.025,1.669-6.182,1.669c-1.534,0-2.997-0.27-4.394-0.809c-1.398-0.539-2.637-1.288-3.714-2.245
			c-1.079-0.956-1.916-1.933-2.511-2.925c-0.596-0.994-1.05-2.034-1.362-3.117c-0.312-1.086-0.469-2.168-0.469-3.244
			c0-1.789,0.327-3.448,0.979-4.981c0.652-1.532,1.519-2.837,2.597-3.915c1.077-1.077,2.269-1.928,3.574-2.554
			c1.688-0.823,3.46-1.233,5.32-1.233c2.128,0,4.174,0.557,6.138,1.67c1.966,1.113,3.507,2.67,4.629,4.671
			c1.121,1.999,1.68,4.057,1.68,6.17C85.863,34.243,85.307,36.299,84.194,38.299"/>
		<path fill="#AF1F24" d="M77.958,23.618c-1.523-0.837-3.044-1.255-4.563-1.255c-1.534,0-3.067,0.436-4.606,1.308
			c-1.54,0.872-2.724,2.074-3.554,3.606c-0.831,1.533-1.245,3.192-1.245,4.979c0,1.66,0.406,3.245,1.224,4.757
			c0.815,1.511,1.985,2.7,3.512,3.573c1.524,0.871,3.087,1.31,4.691,1.31c1.604,0,3.148-0.422,4.639-1.266
			c1.488-0.847,2.655-2.034,3.501-3.565c0.842-1.53,1.264-3.198,1.264-4.999c0-1.831-0.428-3.487-1.285-4.969
			C80.675,25.613,79.482,24.454,77.958,23.618"/>
		<path fill="#AF1F24" d="M104.383,33.003h8.268c0,3.734,3.733,4.354,5.601,4.444c1.555,0,3.777-0.355,3.777-2.223
			c0-3.466-17.068-1.999-17.068-13.333c0-6.577,6.225-9.554,10.579-9.554c3.732,0,7.511,1.199,9.289,4.533l0.442-3.734h7.646v11.155
			h-8.045c0-3.289-2.578-5.155-5.688-5.155c-1.289,0-3.066,0.8-3.066,2.356c0,4.577,17.6,3.51,17.6,13.956
			c0,6.933-6.489,9.423-11.778,9.423c-4.487,0-7.601-2.09-9.288-4.091l-0.489,3.422h-7.778V33.003z"/>
		<path fill="#AF1F24" d="M135.938,44.202V38.38h1.868V16.646h-1.868V10.87h10.755v13.867c0.49-0.801,3.735-3.557,6.979-3.557
			c6.89,0,7.779,5.111,7.779,9.777v7.423h2.088v5.822h-11.422V32.114c0-1.512,0-4.134-2.622-4.134c-2.268,0-2.802,2.223-2.802,4.134
			v6.266h3.201v5.822H135.938z"/>
		<path fill="#AF1F24" d="M165.805,23.847c1.778-1.066,5.6-3.156,9.689-3.156c5.334,0,12.044,2,12.044,9.156v8.665h2.667v5.689
			h-9.512l-1.064-1.999c-1.645,2.267-4.4,2.846-6.002,2.846c-4.222,0-8.756-2.268-8.756-7.424c0-5.022,4.224-8.177,9.245-8.177
			c2.622,0,4.178,1.288,4.4,1.554v-1.554c0-2-1.822-2.49-4.223-2.49c-2.622,0-4.934,1.111-6.622,2.044L165.805,23.847z
			 M178.517,36.114c-0.134-0.223-0.757-1.29-2.622-1.29c-1.778,0-2.578,0.979-2.578,2.357c0,1.243,1.021,2.089,2.354,2.089
			c1.334,0,2.445-0.8,2.846-1.467V36.114z"/>
		<path fill="#AF1F24" d="M191.982,44.202V38.38h1.957V27.758h-1.912v-5.777h8.355l1.333,2.844c1.154-2.134,2.311-3.955,6.889-3.955
			v8c-3.999,0-6.267,1.021-6.267,4.933v4.577h2.223v5.822H191.982z"/>
		<path fill="#AF1F24" d="M232.693,41.137c-3.291,2.845-6.845,3.865-11.467,3.865c-5.511,0-11.734-3.511-11.734-12.044
			c0-7.288,5.245-11.6,11.956-11.6c5.29,0,9.336,2.71,10.623,6.445c0.531,1.555,1.022,4.978,0.088,7.511h-14
			c0.266,1.201,0.845,3.646,4.578,3.646c1.513,0,3.823-0.134,6.223-2.134L232.693,41.137z M225.004,30.915
			c-0.044-1.691-0.443-3.558-3.288-3.558c-2.712,0-3.334,2.446-3.422,3.558H225.004z"/>
	</g>
</g>
</svg>
